<mxfile host="65bd71144e">
    <diagram id="nB1KPt6ZsrbIXZ5rbC55" name="main">
        <mxGraphModel dx="1933" dy="2229" grid="1" gridSize="10" guides="1" tooltips="1" connect="0" arrows="0" fold="1" page="1" pageScale="1" pageWidth="850" pageHeight="1100" math="0" shadow="0">
            <root>
                <mxCell id="0"/>
                <mxCell id="1" parent="0"/>
                <mxCell id="oQeAQy8ogvTm_YPqoA1P-1" value="consistency" style="rounded=0;whiteSpace=wrap;html=1;fillColor=#60a917;strokeColor=#2D7600;fontColor=#ffffff;" parent="1" vertex="1">
                    <mxGeometry x="350" y="-440.00000000000006" width="100" height="40" as="geometry"/>
                </mxCell>
                <mxCell id="oQeAQy8ogvTm_YPqoA1P-2" value="eventually consistency (weak consistency)" style="rounded=0;whiteSpace=wrap;html=1;" parent="1" vertex="1">
                    <mxGeometry x="580" y="-470" width="150" height="60" as="geometry"/>
                </mxCell>
                <mxCell id="oQeAQy8ogvTm_YPqoA1P-3" value="strong consistency" style="rounded=0;whiteSpace=wrap;html=1;" parent="1" vertex="1">
                    <mxGeometry x="400" y="-538.59" width="120" height="50" as="geometry"/>
                </mxCell>
                <mxCell id="oQeAQy8ogvTm_YPqoA1P-4" value="" style="endArrow=none;html=1;" parent="1" source="oQeAQy8ogvTm_YPqoA1P-2" target="oQeAQy8ogvTm_YPqoA1P-1" edge="1">
                    <mxGeometry width="50" height="50" relative="1" as="geometry">
                        <mxPoint x="1060" y="-439.1444444444445" as="sourcePoint"/>
                        <mxPoint x="910" y="-500.2555555555556" as="targetPoint"/>
                    </mxGeometry>
                </mxCell>
                <mxCell id="oQeAQy8ogvTm_YPqoA1P-5" value="" style="endArrow=none;html=1;" parent="1" source="oQeAQy8ogvTm_YPqoA1P-1" target="oQeAQy8ogvTm_YPqoA1P-3" edge="1">
                    <mxGeometry width="50" height="50" relative="1" as="geometry">
                        <mxPoint x="920" y="-364.70000000000005" as="sourcePoint"/>
                        <mxPoint x="880" y="-394.70000000000005" as="targetPoint"/>
                    </mxGeometry>
                </mxCell>
                <mxCell id="oQeAQy8ogvTm_YPqoA1P-6" value="SQL database: mọi cập nhật sau đó read luôn là mới nhất" style="rounded=0;whiteSpace=wrap;html=1;" parent="1" vertex="1">
                    <mxGeometry x="127.25" y="-580" width="125.5" height="60" as="geometry"/>
                </mxCell>
                <mxCell id="oQeAQy8ogvTm_YPqoA1P-7" value="" style="endArrow=none;html=1;" parent="1" source="oQeAQy8ogvTm_YPqoA1P-3" target="oQeAQy8ogvTm_YPqoA1P-6" edge="1">
                    <mxGeometry width="50" height="50" relative="1" as="geometry">
                        <mxPoint x="943.45" y="-494.70000000000005" as="sourcePoint"/>
                        <mxPoint x="1054.5" y="-443.58377445339477" as="targetPoint"/>
                    </mxGeometry>
                </mxCell>
                <mxCell id="oQeAQy8ogvTm_YPqoA1P-8" value="" style="endArrow=none;html=1;" parent="1" source="oQeAQy8ogvTm_YPqoA1P-2" target="oQeAQy8ogvTm_YPqoA1P-9" edge="1">
                    <mxGeometry width="50" height="50" relative="1" as="geometry">
                        <mxPoint x="942.1739130434783" y="-244.70000000000005" as="sourcePoint"/>
                        <mxPoint x="1064.5" y="-353.58377445339477" as="targetPoint"/>
                    </mxGeometry>
                </mxCell>
                <mxCell id="oQeAQy8ogvTm_YPqoA1P-9" value="hệ thống phân tán hi sinh cái này" style="rounded=0;whiteSpace=wrap;html=1;" parent="1" vertex="1">
                    <mxGeometry x="620" y="-330.00000000000006" width="125.5" height="60" as="geometry"/>
                </mxCell>
                <mxCell id="oQeAQy8ogvTm_YPqoA1P-10" value="" style="endArrow=none;html=1;" parent="1" source="oQeAQy8ogvTm_YPqoA1P-2" target="oQeAQy8ogvTm_YPqoA1P-11" edge="1">
                    <mxGeometry width="50" height="50" relative="1" as="geometry">
                        <mxPoint x="960" y="-298.45000000000005" as="sourcePoint"/>
                        <mxPoint x="1030" y="-244.70000000000005" as="targetPoint"/>
                    </mxGeometry>
                </mxCell>
                <mxCell id="oQeAQy8ogvTm_YPqoA1P-11" value="chấp nhận có thể node đã cập nhật node không" style="rounded=0;whiteSpace=wrap;html=1;" parent="1" vertex="1">
                    <mxGeometry x="790" y="-430" width="125.5" height="60" as="geometry"/>
                </mxCell>
                <mxCell id="oQeAQy8ogvTm_YPqoA1P-12" value="" style="shape=image;imageAspect=0;aspect=fixed;verticalLabelPosition=bottom;verticalAlign=top;image=data:image/png,iVBORw0KGgoAAAANSUhEUgAAAnEAAAFyCAIAAAAVkxtcAAAzQUlEQVR42uzdD1BUZ57v/2M0A/YhtlHoJmZsbUUDk0a5kgj3DowGXNvdEmZMfltexF2nvKDmznVQZ6picDKzSUaSTVVUrr/didJjrbWSvvxubZxpTEWS0DoLUz/aCV6VzuD/ls5OAsc2Y0dOB0aMt+DRk04DitD86eb9qlQKjk3/efp7zuc8z3nOOZNu37599arv3IWLHR0dEgAAeECxsbFPzEtKSIifoChXTze5E+LjTTO//eijU2kaAAAG7s9/vu795D+u+nwLUy0T6n7//z8SF7dwgYV2AQBgcE6fcd9ob3+oo6PDNPPbNAcAAINmmvntjo6OhyRJYsgXAICheOSROEmSHqIhAAAYokmTJpGpAACEDZkKAACZCgAAmQoAAJkKAADIVAAAyFQAAMhUAADIVAAAQKYCAECmAgBApgIAQKYCAAAyFQCAsWLSsD6795r0h8tSeyftjHEhLkZ6eo5kmh4xb5g1FKyhEdNP9V6TjjWzumIcae/srnnvtYgJVNZQsIZGTD/1D5e7/z9NlhaaImnPHRh0RJ32Sp+r3ZUfEQXPGgrW0Ijpp/6l687+L6srxgnT9O5qF/vCYx9rKFhDIylTgz8GME4k6iNyQwOwho71TP3WJL4+jDsRVPasoWANjch+KgAA4wSZCgAAmQoAAJkKAACZCgAAyFQAAMhUAADIVAAAyFQAAPAguJjK4KmqWlS8MXhJqsViSX0yPy9vZN6AoigOx5Fap1N79YzMxbk5OWOwocrL9za53QUFq0escQDW0IFwVFfX1h5TFEW8w6Ki9QaDgeKhnzomNLnddntVWdnrA6/mkHV+4BpcrpIt27TVVby6u+njoX+EgjVrPR5PGDcrpTteanK7KQ+who61NbS8fK/dXiUCVTz5zgE3DuinDgtZlm0V+7Q10OE4ItbbgoLV9/3b2tpjg94Bt9kOhOxXOqqrUy2WIX4cV8OJMDZOg8sl3mdmRkaDy0W1gDV0TK2hBoMh1WIpKFhtNpsVRdlZ9rqiKA0uV2ZGBpVDpo6+/Lw8g8FQXr631unU1lhHdbW76WPRUTObzfn5K0W9lvWUryRJBWvWSpJUUrI5MyNDUZTa2mOO6mrxt7k5OUVF6/tY1Z1OVVXNZnNp6fbgVw9ZpUWMBb+oGA3Lzckxz5ltt1epqtr9Bu4OyTqqq8VudemOl8QTik9R63Q6HEfEuw1+S3Z7laO6unzPLvGeuz/7nl3B73OO2WwwGLaUbB70tglgDR2+NTR4x0Lka3DHGmTq6MvMyLAbqhRFaXK7Uy0WVVUdjiNixZAkyePx2GwHUi2WJre7z+HQ4NVVrCqyLPfeoRYjSLm5z/T3NnaWva6NDokXFfGmdR+D1xy7vUqsiuKH3lsHscet/SpJUvB2ZE/5Xo/Hk5mR0fswjMFgKNv5KlUB1tCxuYaGEKk8x2ymTsjUMcRoMCiKItZSWZbz81emWixms1lV1dIdL4mVOTMjI7XCUlS8MXhgSqyEcpxO2ye126ua3O4CKXSNbe958v7WEEd1tcfjMZvNO0q3y7Is9lUdjiPaaqaqamZGRknJZnFApcHl8ly+IufJ9rcPle54yePxlO181Xx3vXI4jmh7ymJ0qNbpzM9fqb26oijle3YxrwGsoRG9htY6nU1ut+jKUySDxhylkRhuEtUvy/J9j6YYDAZtgGjQhzQ8l6/cWfllWaxssiyH7HRre9YZmYvv9VQej6Io2rsyGAxi1zv42Qay/wuwho7lNdTj8djtVeLYKiVBP3VsaesZPxFrixhZEgdXBvK3tU6nq+HEfWfJxvU8uTZbr883YLMdCB4RCibL8gBTUDyVoijikJIm+OMYjAl86WANjdw11OPx7Cx7fc43j/6CfuqYUOt0Koqi7fDuLHvdUV1dULDa/vYh+9uH7r1jq82StVXss7996B5HIi2pT95jUqKxr7VR7fGgH8fYz4qttgf4rsEaGgVraIPLVbrjJQKVfupYJI6LSJKUn79SrCQej0eWZbGiejyey32dVaaqqthlFiNCZrNZ/HqPubKpFotdqvJ4POXle4uK1ovHN7hcRoPBbDab58xucLmCp/+J6YWyLA9wpW1TFDEaZr47b2JLyWbt+M0Az0MAWEPH+Bra4HKVl+9NtVgIVDJ1rFBVNWTUJTMjQxzbEAM4iqJop42LVSt4eEf714KC1XKc7s4pdHcnFgY/PpjZbO7es7ZXNbhcwed9ivPM8vPyGhpO1DqdwVMH8/PyBnL4x2gwiA1BubRXzJLIz19psx0Qc/e/frb8lf29N4A1NCLWUEVRysv3ateRCH7zTNcfNMZ+w0mc3y1m62mrkHZcRJvI1+e/ijVNW6kMBkNJyeZ7TGrPz8srKdkcPKUi1WLRft1Ruj34EmipFkvmPWc6BL8l7UnMc2Zrp7tpu8DizAECFayhkb6GDmKoGfc14YPaY8tylg7HUx+s7/7/uiwaGeNIBJU9ayhYQ8PrQ+dx+qkAAIQHmQoAAJkKAACZCgAAmQoAAMhUAADIVAAAyFQAAMhUAABApgIAQKYCAECmAgBApgIAADIVAAAyFQAAMhUAAJCpAACQqQAAkKkAAJCpAACATAUAgEwFAIBMBQCATAUAAGQqAABkKgAAZCoAACBTAQAYDpOi7yN9cfPLr27dips0+cifTn765ediYeOfr0iS9OO5y5Nk4/rGiktqW/Cf7LIUJsmGfNfu3s+2y1KYpjfl/P61eyyfKxvjHo4Vy388d3myfsavPcclSZoxedoM3aOSJCVPfXzKw5OpNgAgU8eurq5bt29/VXHJef5G642ujos3WtVbnVrg/fKPh0Me7+8M3Iq9FRKoQtyk2EG/jeAn9HcGOjv/csDzu94Z/J+mztrirnxkUuz8RxJF3C5OSKIEAYBMHR3N1//0ke/S+Rufnb/ReklteyX5uazp83sHmCBPjEmKM4qfk2Rj3MSYxFi9JEnrZmZ19yyDQjRJNojY6/0k/f2Ttry9qyM4U8VLLNSbJEm62N4mMl74rOP66estkiTV+85pC22Lih7XTTvaduap+LkpUx+nIgGATB1e/k71W19N/B//519O+70hHcSs6fOfm/F0a8f1pJ6YnCt3h2haT6RVZ27r89nWmbL7XC7+6oH+SSzPmj4/ZPnub2bwKb83TW9q7fSvm5l1UW1rv9WpfZA5kxPqfefLLxyVLkjGGP2iR2evMWeNYriWlb1uSX0yPy+PdQMAoi1TT1y9uO9irXT79m5LYZJsPO33it5n2hTTQv0s0Sn8kXnZGP8UInoTY/TBcd7a6W/t8EuS1H6rQ54Yo97qbOv0v9d6+r3W0yuMC/5hwd9OmjTxgV6lZMs2RVHEzwaDIT9/ZW5OzqDfs6O6urb2WPmeXQP/kwaXy930cVHRetYrAGTqmPOblj9ox0RbO/3PzXjaakhNko3R0fSJMfrEmO59ghWGBSsMCy6qbTVKU/21822d/gVTZipffP5J1/UMw7wHes6CgtWii+morrbZDqRaLAaDYXBvLz8v70F7q57LV1ijAJCpY5QIVGOM/oV5K0X8SOL/0ShJNiaZjT8yL6u/dj5Nb9rqrrykKh/9ddngni0zI8Nur2pTFIPB4PF4KmwHPB6PSMqCgtVijFeW5csej+jaamEc3E91N31cWrpdkqRap9Nur1JVVZKkoqL1uTk5jupqh+OIWJKbk1NUtN5mO1DrdIoHiyV9vi4AkKmjqSJt/VAm5UacrOnzf3nut5dUZShP4nAckWV5jtmsquqe8r2pFkvZzlc9Hs/OstcNxgQxJtzkdu8o3W42m2udTpvtgNlsTrVY+uh9ejw22wERpaqqigw2m80lJZtTLZYGl6u8fG9u7jNFReuVnggXY7/3eF0AiFZj+poPuyyFT0+dk+/aXXzq10eVM+PkK/nHC0ecvj8O7m/t9qqCNWsL1qy97PHsKN0uy3KT260oiugjitR0N32s9WXNZrPoaJrNZm15iIaGE2azWcShLMviT1ItFhHAmRkZkiS193RYg93jdQGAfuooSNObanqi9JKqvHHh3YPe+nWmrBWGBVH5TbR3ddR/fv6gt76t0z/oJxFDuHZ7VYPLJcLvzoBt8UbtMVpn1GBM0BbGybLaKxcFVVXjZDm0Hxw09tvfX/X3ugBApo6Cre5K0Vv9J88Hl1SlrdP/xoV3oyBT27s6Lt4d2m3tvP5vn/7huRlPZ02bf9rvbe/qsBpSrYYF23o+++Dk56+sdTod1dX5eXlyTxzaKvbJvXJRabv69VtSVXOvBwiyLId0Q0WgirHf7iBfs7bPv+rvdQGATB0F4iTONIupIu2/nfJ7a5Qz9dfOt3d1xE2KDb5Y4EK9yWpIjaysDYnMg976FYYFL8xb+cLdeb7rZmYN+sllWc7PX+lwHMnMyBBTf8vL94rZRh6Pp11VRRY2uFy5uc+YzWZHdbXH4+lvDpEl9UlHdbWYeSQGdcXyOT39YJvtgPZIg8FwuWdGkuiV9ve6AECmjrI0vSlNb9Ii57kZT4vTTkT0nvZ7s6bND8lawfndF0ey39ne1XH6C+/RtjPiihN9vh9tytVCvSltiinkok53MrWfC1MMtKual1dbe8xuryop2bylZHOF7YDoTcqyXFKyWQvFPeV7tXm//QVeqsVSVLTebq8S8SkmKzU0nBDjuqkWixhkliQpN/eZhjJXwZq1qRZLaen2/l4XAKLVhA9qjy3LWTocT32wvicbBt/dkp56r/RBQ7G/TB3W5e1dHb2vv9/78Q/Unxbj3r/+L5uG6YvneknDZOhlz1sFIrTsP3Qej7b70vQXwNqFeU994Q25wOHQxU2KlSfGrDAuWDjFFNLjHHQvOexvEgAw3CaNk8+pXZh33cAy+EGX93dtYQAAmTom9HmjGISFmDoEABgvmXqPG8UAADDWjOnrKG11V24dwmmaAADQT71jPM/TGcr5qQAAMhVBmTq081MBAGQq7tDOT335lZ20RsR52clbRbeYmJjERGNy8hPJTzwxdaqeBiFTMTo4PxWIAp2dnS0t3pYWb03NBxkZi5cuyY6NjaVZyFSMml/8fAeNEEG4jhKCtba2tba1nTp1uqXF63KdOHv23H9d/beJiUZahkwdBZyfCiCiJSYaExONaQsXXLnS8pvfVvv9/n85+K8/XPd3xGq0GtPn0ojr5o/ue9jxs5dqat6nUAAMxezZszZtLDIajZ2dnf+r6n93dHTQJmTqSBvi+ak+n2/jpuf3V1SEZGRdXf3wvef9FRU7fvYShQUgRGxs7A/XrdXr9X6///jv6mgQMnWkiZu4DfFJGhtPDmuIBgsEAo2NJ8X/h/hU62ZmcYoqEH2x+oPv50mS5HKduH7dT4NEn+ifo2S1Ln/n8OGUlOT4+PiQf3rn8GExrqvT6VZYrVbrcq2vKUJxlskUnJf7Kyqam89KkpSSkryhuFin04U8YV1dfUpKckpySl19XXr6oiFlKuenAtFo9uxZs2aZWlq8Z8+dy8xYTIPQT40w38vOToiPf+fw4ZDlNTXv19XVl5a+uO+tXz27atU7hw+LvKypeb+5+axYnp6e7vP5xOMPVVYG1MDuXW/u3vVmQA30fkJJkv69ri59UXp6+qLm5rPaHw4O12UEolVa2kJJks6ePUdTkKkRacOG4t4jwI2NjdnZWaInmp2dlZ6+qPFkY8hyq3W56IyK4Vyr1arrkZ6e3nt0V4z6ZmdnxcfHp6QkD3H4Nyzj3gDGoESjUZxmQ1NEn3Fxfmp8fLzoiaakJGsL1UBA1snarzqdTvQsey8XmSrGhKWKfl+l8WRjIBDYuOl58WtLi1cbTAaArzO150Sazs5OmoJMHVFhPD/Val3e2NgYPGAr63RqQNV+DQQC4oBr7+Vasm4oLu7vKKnP52tsPLnzl6+KJwkEAmKCcXY284wAYLwYR+enbthQHHyYMzs7u66uXhxDraurb2w8mb4oXZKk9PT0urr6Fq9XHFvVMjU9fVFNTY3480AgEHLSamPjyeBpUOLxYjA5spSVve6ormbFAIBo66eKSTq7w9RbjY+PX2G1al3V7OysQCCwp7xcROCzq1aJkWGrdXmLt6Ws7DUx71eb+ru2sPBQZaV27umzq1YFP/nRmpqQJdnZ2WVlr/l8vt7zjYdJyZZtiqKInw0GQ37+ytycnEE/m6O6urb2WPmeXQP/kwaXy930cVHRetYrAGTqmDPESTrx8fH73vpV8BKrdXnwMc6QX7/u0RYXS8WhC3U6XZ/Lhd273gxZMstkCnn1BzK4k1MLClbn5+WJRLTZDqRaLAaDYXBvID8vTzzVwHkuX2GNAkCmYswZ4vmpmRkZdntVm6IYDAaPx1NhO+DxeERSFhSsFmO8sixf9nhE11YL4+B+qrvp49LS7ZIk1TqddnuVqqqSJBUVrc/NyXFUVzscR8SS3JycoqL1NtuBWqdTPFgs6fN1AYBMxUjT7p86uD93OI7IsjzHbFZVdU/53lSLpWznqx6PZ2fZ6wZjghgTbnK7d5RuN5vNtU6nzXbAbDanWix99D49HpvtgIhSVVVFBpvN5pKSzakWS4PLVV6+Nzf3maKi9UpPhIux33u8LgBEq4dogrFpcOen2u1VBWvWFqxZe9nj2VG6XZblJrdbURTRRxSp6W76WOvLms1m0dE0m83a8hANDSfMZrOIQ1mWxZ+kWiwigDMzMiRJalfVkL+6x+sCAP1URAAxhGu3VzW4XCL87gzYFm/UHqN1Rg3GBG1hnCyrvXJRUFU1TpZD+8FBY7/9/VV/rwsAZOoo4P6pg5Ofv7LW6XRUV+fn5ck9cWir2Cf3ykWl7ar2c7uqmns9QJBlOaQbKgJVjP12B/matX3+VX+vCwDRivunRiFZlvPzVzocRxRFEVN/y8v3in/yeDxNbrf4ucHlEhOIHNXVHo/Hkvpkn89mSX3S4/GI+UdiUFf8MKenH2yzHdAeaTAYLvc8oeiV9ve6AEA/dRSE9/zUgThUWSkuCxwfH79hQ/Esk6mm5n1xSuuzq1ZF0LUG8/PyamuP2e1VJSWbt5RsrrAdEL1JWZZLSjZrobinfK8277e/sdlUi6WoaL3dXiXiU0xWamg4IcZ1Uy0WMcgsSVJu7jMNZa6CNWtTLZbS0u39vS4ARKsJH9QeW5azdDie+mDPJevXDeHafE+9VypJkvO7L45ki4gQzc7OWlt4J8t3/OylFVbrCF9l8KC3TpKkzZa/GabnLyt73ZL65IOegYoRKHve6njw8is7JUn6xc930BTRVPYfOo8z7zeU1bp8lskkbjIjIjYhIX7kL9u7zpTNLVQBILKQqX1YtWpVIBA4VFnp8/mO1tRsKC4e+ffA/VMBIOJwLk0fUlKS09MXNTae9F31rei5Z+rIv4fhvnmquEASAIB+6rBbW1io0+mu+nzcAxUAEA391FE/P1Xc041YBQBEfD91FM9P3V9RscJqjY+PP1pTIyYrAQAQwZk6WvN06urqA2rAal3+bM9kJe2WqwAA3EM03z91cAKBwNGamg0biiVJSk9flFKfXFdXn52drd2cfGRo908V57FFn5iYmMREY3LyE8lPPDF1qp5VEQD91Ci0v6IiISFeS1DrcqskSZWHRrq7HPXnp3Z2dra0eGtqPij/n//v0ZoPOjo6qD0A9FOjRyAQ2F9R0dx8VqfT9fRNswKBQM37NZIktXi9ZWWvbdlSMmLn1Wj3T43WK620tra1trWdOnW6pcXrcp04e/bcf139t4mJRuoQAJkaDXQ63ZaSknsvGTGjMu49khITjYmJxrSFC65cafnNb6v9fv+/HPzXH677O2IVQORi7BejbPbsWZs2FhmNxs7Ozv9V9b8ZBAZApg6LXZZCbqE6HsTGxv5w3Vq9Xu/3+4//ro4GAUCmhh/3Tx1XsfqD7+dJkuRynbh+3U+DACBTw4zryI8rs2fPmjWrexfq7LlztAaASMT5qWOUdn7quJKWtrClxXv27LnMjMWsnADIVIQpU8flzVMTjUZxmg0FACASMe93jBqf497iRJrOzk4KAAD91GFRf+181vT54+crOeX3/pPng0uqIknSV1999dBD7PcAAJk6ZD+eZz3n/zRr+vyt7sr2ro7nZjydpp+VGBPN14b9xwtHapQm8XNp8vcJVAAgU8Pj75OW3Lx58+PPPxGTld648K4kScYYfZre9MK8lVHQ+hfVtotq22m/95Tf297VUZ25baHeVKM0GWP025L/JndGKgUKAGRq2Dz88MNpxjmvLyw48qeT9b5zkiS1dfrrr51/YZ50VDnzxoV358qGuEmxaVNMcZNiF+pNSfIYvbLdqZ7dgktqW3tXh9W4QJKkNR/9c++IXWr8zjTdlGWkKQCQqcNk2YxUETMnrl786NqlL/7yZXe4dvh7UkrRzrpZqDftthQe9NYd/KTeGKNPjNVLkhQ3Mea70+evMCyov3a+rdM/Nyh0E2P1gxtJbu30t3b4Q57nqHKm7e7Ci2pb+63OdTOz0/SmnN+/FvLnc2Vj8BHihVNnpT86+6lpcxYZkro/7COPUpcAQKYOu8UJSYsTksTPz5ozM4zzP7p26bMvr3/acb31y+siIC+qbaI729bpv5t5UyVJ+rfP/hBywuu6mVnrTNlb3ZVhWV6jNIUsPz2lJU1vWqg3acu7k37y1A6pKybmW//6n//7lId1j8vTqEIAIFNH2ePytMflaVrECrdv3970xF8V3sw+5//0Rld3d/b8jdb5jyROnDhxXlxia8fXQRt2SbJRmjBB/PzIpNj5jyQummqOjY356XdW3rjZkTz18SkPTw5+fErMt6k/4a19tra2b5yTqt2J3Wg0btpYRBOBOgeZOgomTJiQMvXbokcb8k/bF/xge19/8tPv5N24+WXwkscmT9XF6kQW9rm8vavz6fi5Ic/z4sJVfb6llG+Rnffxg+/n7dtv6++faB9Q5yBTI0bK1Mf7XN7iapYkaYX1r3o9nowMs8RE45Il2b/rdUeaJUuyuZ0qqHNEEE5/7NuVKy0u1wmX68SVKy20xghYuuR7RuM3NitGo3Hpku/RMqDOQaZGto6Ojt/8tlr8/JvfVnOX7JERMvzFaBioc5Cp0eD47+r8/jtTmbhL9ogRI2PiZ0bDQJ2DTI0GYtQ3eAkjwCNGjIwxGgbqHBGKOUrfEDzqG+w3v63etLEoNjaWJhpuDIWBOgf91CgRPOobjBHgEZOYaGQ0DNQ56KdGQyc1NjZGO9Qhprxrv959AF3Vvn1x88uvbt2KmzT5yJ9Ofvrl52Jh45+vSJL047nLk2Tj+saKS+o3TnjfZSlMkg35rt29n22XpbDPyzoGL58rG+MevvN1/Hju8mT9jF97jkuSNGPytBm6RyVJ6n2dDYA6B5k6QmJjY4MPb4hM5YBHb11dt27f/qrikvP8jdYbXR0Xb7Sqtzq1DcEv/3g4tJffGbgVeytkQyPETRr8PkrwE/o7A52dfzng+V3vbdN/mjpri7tSXNlKbIZ6Xw8EoM5BpmKENF//00e+S+dvfHb+Ruslte2V5Oeyps/vvWIL8sSYpLg7g1pJsjFuYoy4mcG6mVnde9xBG5ck2SA2B72fpL9/0pa3d3UEb2vESyzUmyRJutjeJrZ9wmcd109fb5EkSdzXSLAtKnpcN+1o25mn4uf2d9EPUOfUOchUhI2/U/3WVxP/x//5l5B7A1xS27Kmz39uxtOtHdeTejYf4m4/aT2renXmtj6fbZ0pu8/l4q8e6J/E8uB7+wi7v7ltOuX3pulNrZ3+dTOzxJ2CtA8yZ3JCve98+YWj0gXJGKNf9OjsNeYsNjrUOXUOMhXhd+LqxX0Xa6Xbt3dbCpNk42m/V+yVp00xLdTPEjvLPzIvG+OfQmySEmP0wZs57T597bc65Ikx6q3Otk7/e62n32s9vcK44B8W/O2kSRMpAOqcOgeZivD4TcsftGNFrZ3+52Y8bTWkjtmbvT+oxJg7N81dYViwwrDgotpWozSJe+sumDJT+eLzT7quZxjmUQbUOXUOMhVhIDY0xhj9C/NW3rln+6Du3B4RkmRjktn4I/Oy+mvn0/Smre7KS6ry0V+XUQbUOXUOMhVhU5G2fiiTFSNO1vT5vzz320uqwldPnVPnGDSu+YBQuyyFT0+dk+/aXXzq10eVM+PkU//jhSNO3x/59qlz6hxkKsIpTW+a9i25Z96j8saFdws++uco3uK0d3UcVc4UfPTPNUoTXz11Tp2DTEWYbXVXtnb6d1kK5/acJNfW6X/jwrvRsVk55feK/44qZ7TeyWm/t72rw2pI7fMMQlDn1DkGjuOpCCVObkuzmCrS/tspv7dGOVN/7Xx7V0fcpNjgi6gt1JushtQVhgUR9NG2uSuDfz3orV9hWPDCvJUv3J3/uG5mFgVAnVPnIFMxLNL0pjS9SVsVn5vxtJiOLzZJp/3erGnzQ7ZBgvO7L47A/vjFu1Mt2rs6Tn/hPdp2RpyJ3+f70aaiLNSb0qaYQi52c2db088J+6DOqXOQqQizH5mXPdAp8P1tg8K1PGR/vE+inzHALeDWnif89X/ZxHdNnVPnIFMxOvpbh7ULlp76whty4behi5sUK0+MWWFcsHCKKWRPfNC9h7C/SVDn1DmZCoSHdsHSdQPbNj3o8v6uuQpQ5yBTMSYwLRDUOUCmIpw73QB1Djwozk9FqK3uyq0DmBMBUOcA/VTcx3iev8B5e9Q5dQ4yFQjTtobz9kCdYwgY+wW+xnggqHPQTwXCg/P2QJ2DfioAAPRTMfZw3h6oc4B+KsJDXE98FN+Az+fbuOn55uazfBeI4jqXJGnHz16qqXmf74J+KqKZmLywe7B78T6fb8fPXkpPX7ShuDh427HCas3OzhqOrZLP59N+fXbVKqt1OV8ioqzOJUmqq6uvq6tr8d45FGq1Ln921Sq+RzIVY11Y5i80Np6sS64fpo1LCC1H6+rqD1VW6nS6Qb8u5+1R52OzzkVtZ2dnlZa+KElSi9frbRn8+6fOyVREGKt1+TuHD6ekJMfHx4f80zuHD4vxLp1Ot8JqFXHo8/n2768Q++Dp6Yu0BwcCgf0VFWIcOCUleUNxsU6n6+9Fs7OzjtbUBAKBwW9rOG8Pw1nnkiTtr6hobDwpSdIsk2mAdR4IBN45fDi4YzrLZAr+c+p87OB4KobF97KzE+Lj3zl8OGR5Tc37dXX1paUv7nvrV8+uWvXO4cNiO3Kosmcgbteb+976VXAoHqqsDKiB3bve3L3rzYAa6P2EwZqbz/p8vuSU5EG/bc7bw7DWeU3N+83NZ8Xy9PR07bDFveu8pcUbCATS09PD9bapczIVkWfDhuLGxpN1dfXBCxsbG7Ozs8QudnZ2Vnr6osaTjYFAoLn5rNVqFfvmq+7ujAcCgcbGk2K5TqdLT08XO/i9OwQbNz2/cdPze8rLn121aij776f9Xk7dwzDVechyq3W5KPj71rmIXrn/ERrqfOxg7BfDJT4+XuyhpwR1HNVAQNbJ2q86nc7n84mOqTbYpW07xPL9FRVSxb1eSDue2uL17t9fIbZWtD/GWp33uXwgdS4GltVAIJ7mJlMRccJ43p7VuryxsTF4IEvW6dSAqv0aCATi4+ODtyxi2xG8xdlQXBx8hPUeZplMKSnJzWebyVSMwTrvc/lA6nzWLJNOpzvbfHYoYzAYGYz9IlR4z9vbsKFYHOYUv2ZnZ9fV1YtjS3V19Y2NJ9MXpet0upSU5Jq704sO39029YyDLaqpqRF/HggE7n0yX4vX29x8tvdsEWAs1HnP/Lv0urp6MRevpuZ9LVPvXediltM7hw9rsR0IBEJGm0E/FWPUEM/bCxEfHy82B3e3NVmBQGBPebnYUjy7apUYMVtbWLh/f8XWbT8R8361ceC1hYWHKit3/Owl8WufJ+QFb2vS0xdx0h7GbJ1brctbvC1lZa+FzN29b52LoZd/r6vT4pY6H5smfFB7bFnO0uF46oM9e1HrIvY8qJdf2SlJ0i9+vmO81cRT75VKkuT87ovjcH046K2TJGmz5W/GQ9lH+hpKnY9inUfwZx/Osv/QeZx+KvA1ztsDdY6h4Hgq8DXO2wN1jqGgnwp8jZP2QJ2DfioAAPRTMfZwX0lQ5wCZivAY9ZtKAtQ5yFREifCetzcQhyorxQns8fHxGzYUzzKZamreF6f6cT9URFCdU8kgUxFq5OcvrC0sTIhPEFdM1S4v/u91dcN3e+f+cF9J6jw6Kpk6Hy3MUcKYYLUun2UyNTaeFFdrq6l5PyEhfuQ3Q+tM2Zy6h1Gp5I2bnhfXMgzm8/n6XE6dk6nAfaxatSoQCByqrPT5fEdrajYUF4/8e+C8PURHJVPno4WxX4wVKSnJ6emLGhtP+q76Vty9l+oI47w9REclU+dkKiCtLSxsbj571edjNgeitZJbvN7KQ5Xi1jQpKclrCwtD7qTk8/n2768QDxjgXQ4xdjD2i1C7LIWje+refe/pBkREnfeu5EAgsH9/hWmWad9bv9q9682AGjhUGToGK5bs3vXmvrd+pd1UGGQqIlV47yv5QPZXVKywWuPj44/evZcqEIl13l8li3usitu06XS6wrWFwXddFaHb3HzWenfEeBU3dCNTEelGa/5CXV19QA1Yrcuf7Zniod2KEoisOr9HJWs3IRe/yj0/XL3qu/cDEEE4nopQozJ/IRAIHK2p2bChWBxDSqlPrqurz87O1m7aPDI4b486H9ZKFmEZCATED2pPgiYkfH08VXuA+FUdntEa6px+KqLc/oqKhIR4LUGty62SJFUeGunuMuftYVgrOT19UXx8/P6KChGclYcqU1KSg+co6XS6lJTkmrsjxoeHZ7SGOidTEbUCgcCe8vLm5rMtLV5xXbdAIFDzfo2YIVlW9tpIHljlvD0MdyVv2FAcUAMbNz2/ddtPdLJubWHoPCmxZOu2n2zc9LyuB3UeQRj7xSjT6XRbSkruvWTEcN4ehruSZ5lMpaUv9v7zfW/9SvwQHx/f5wOoc/qpAADQT8U4xn0lQZ0DZCrCg/tKgjoHBoexX4Ri/gKoc4B+KsJjPM9f4Lw96pw6B5kKhGlbw0l7oM4xBIz9Al9jPBDUOeinIvzqr53Pmj5//HzeU37vP3k+uKQqkiR99dVXDz3E7iZ1Tp2DTMWQ/Xie9Zz/06zp87e6K9u7Op6b8XSaflZijD6KP/I/XjhSozSJn0uTv8+GhjqnzkGmIjz+PmnJzZs3P/78EzGJ440L70qSZIzRp+lNL8xbGQUf8KLadlFtO+33nvJ727s6qjO3LdSbapQmY4x+W/Lf5M5IpQaoc+ocZCrC5uGHH04zznl9YcGRP52s952TJKmt019/7fwL86Sjypk3Lrw7VzbETYpNm2KKmxS7UG9Kko1j84Oc6tlcXlLb2rs6rMYFkiSt+eife296lhq/M003ZRlbGeqcOgeZimGybEaqWP1OXL340bVLX/zly+6NToe/Z+1VtLMRFupNuy2FB711Bz+pN8boE2P1kiTFTYz57vT5KwwL6q+db+v0zw3aGCXG6gc3wtba6W/tefXg5zmqnGm7u/Ci2tZ+q3PdzOw0vSnn96+F/Plc2Rh85Gzh1Fnpj85+atqcRYak7g/7yKN849Q5dQ4yFcNucULS4oQk8fOz5swM4/yPrl367Mvrn3Zcb/3yuthwXFTbxG5+W6f/7rZgqiRJ//bZH0JOBFw3M2udKXuruzIsy2uUppDlp6e0pOlNC/UmbXn3FnDy1A6pKybmW//6n//7lId1j8vT+FpBnYNMxSh7XJ72uDxN2/QIt2/f3vTEXxXezD7n//RGV/du/vkbrfMfSZw4ceK8uMTWjq83QGGXJBulCRPEz49Mip3/SOKiqebY2JiffmfljZsdyVMfn/Lw5ODHp8R8my8R1DmGyYQPao8ty1k6HE99sL5nJytir9fx8is7JUn6xc93UCXDofn6n27c/DJ4yWOTpz4W++iF9s9u3Ozoc3l7V+fT8XPH+OeKoLKP9DWUOsdYK/sPncfpp2J0pEx9vM/l/9//PNjnrkzKVPa7QZ1jrOP8JAAAyFQAAMhUAADIVAAAQKYCAECmAgBApgIAQKaGifcajYzxIhKrnTUUrKGRkalxMd3/P+1lpUX0+0tXd52f9n5d+WMfayhYQ8NuGK+j9PQc6Viz9Lna/f/IJS5kBZr9gSo/Ut5nFKyh1DnG1Bo6jP1U03TpmZSI2WcHwtLzeyalu/IjAmsoWEMjqZ8qVtpI2b709rJT4grjNHt0i+g1lDrHGMS8XwAAyFQAAMhUAADIVAAAQKYCAECmAgBApgIAQKYC40zJlm2O6mraAdQ5Bm0STTBEpTteSrVYCgpWi1+LijcaDIayna+KX+32qia3W/tVU1b2usFgKCpaL55hS8lmg8FAYz7opkFRFPGzwWDIz1+Zm5NDs4A6B5kawVItlia3u0DqzlSPx6OqqsfjURRFZGST251qsfSRxKXbxQ/i8TTj4BQUrM7Py5MkyVFdbbMdSLVY2DUBdQ4yNYKZ58x2VFerqirLcpPbbTabJUlqcLny8/JEXubnr+xeK9asLSpab7dXqapatvNVu73KkvpkZkZGyZZtYldUkqTyPbtkWS4v39vkdou0LinZLMsyjXxfmRkZdntVW8+ujMfjqbAdEHsq+Xl5Ygihye2226vEQrPZvKN0u2jY8vK9DS6XWEgzgjrHEHE8NQz9VJGm3VHacCIzc3GqxeJu+ljUt3iAeKTdXrWjdLv97UNaWRsMBtFhLd+zy/72IYPBYLMdaFdVW8U+W8W+dlW126to4YFwOI7IsjzHbFZVdU/53jlms/3tQ2U7X611OmudTkmSjAZDZuZi+9uHyvfsUhRFLHRUV4uRefvbhzIzF2sjbAB1DjJ1dMiyLEJUURSPx5NqsWRmLm5yu7s7qZevZGZkaB3N/PyV995JVFW1u4Obv1LukZm5WOxaoj92e1XBmrUFa9Ze9njELnmT260oithnN5vN2v6NwWAQo2cGg2HO3W+hoeFEbk6O+FLy8/IYEgB1jiFi7DcMzHNmOxxHDMYEg8EgCleW5Vqns8ntzsxc/PXD7jfqoqqqGKUpl/bSqgMhjjPZ7VUNLpdoXtGGRcUbgwcSJEnq3pGvPaYdurakPikeLMfpgnePaFJQ5yBTR1mqxdJd7g0nMjMyxJLcnBx308cej6e4Z2bvwLu8kiSVlGzWngcDkZ+/stbpdFRXa/vgtop9wRsOj8djsx0oKFgtJmCXlb2uNbjaHgjZpwGocwwaY7/h6KeazbIsezwe85zZWs+1ye2WZfm+fVNjz/y9yz37lbIsZ2ZkOBxHxAEPVVU5jWyA+yL5+StFu4kpkeXle7WtTJPb3d6zERHfhRg/EP+ambm41ukUO/ViohmNCeoc9FNHX2ZGRoPLpfUvMzMybPKBPs+iCWEwGHJzcsR4b2np9qKi9TbbATENWIz50LYD2oXPy6utPWa3V5WUbN5SsrnCdqBgzVqxGSop2ZxqseTm5IjddrPZrH1N+Xl5nstXSne8JJYzJRLUOYZowge1x5blLKUhenv5lZ2SJP3i5ztoCpodoM5xXx86jzP2CwBAeJCpAACQqQAAkKkAAJCpAACATAUAYDhxfupQ1TqdNtsB8XNR0frcnJwGl8tmO6CqaqrFot3TDTQ7QJ2TqbiP3JycOWZz6Y6XxNUbxAUfxPWsix7kwoSg2QHqPNIx9hsGZrM5Py9PURRxGxlxnTAugUSzA6NY5wVr1mqXJ9QoitLncpCpY0t+/kqDwSBuOV7Rcxlrbv5AswPUOZmKwZBlOTf3GUVRdpa9bjQYuLEMzQ5Q5+MQx1PDty+Zl9fQcOJB7+8Gmh0YSp2rqlpevlcM55rN5oKC1SF371AUZU/5XnFfGvKYfmrkcTiO0Ag0OzAydW6zHWhXVVvFPvvbh+aYzeXle0Pu5iZmDosHcKM3MjVyar26Oq7nBqgNLpeYTQCaHRjWOldVtcHlys9fKY6wisnAIQ9ocru1BzCJb7gx9hseiqI4HEfK9+ySJKnJ7XY4jjDGQrMDw13not8ZPGVJluXgzmjIA5jcRD81MthsB8SeoLgXv8fjcVRX0yw0OzCsdS4yMiREQyI2+AGM/ZKpEcBRXX3Z48nPyxO/5uflybLscBxRFIXGodmB4atzWZZzc3K0X8Wh0+DRGlmWUy0Wh+OISFO7vYomJVPH+i6kOG9MK1Zx5TBVVUt3vCTm2oFmB4apzgsKVhsNhpIt2wrWrL3s8ZSUbA4Z4BUHWYuKNxasWSs6uzTs8JnwQe2xZTlLaYjeXn5lpyRJv/j5DpqCZgeoc9zXh87j9FMBAAgPMhUAADIVAAAyFQAAMhUAAJCpAACQqQAAkKkAAJCpAACATAUAYORxrzeMvrf22dra2oKXiCu3SZJkNBo3bSyiiUCdg34qMCA/+H7eIP4JoM5BpgKhEhONS5Zk916+ZEl2YqKR9gF1DjIVeABLl3zPaPzGZsVoNC5d8j1aBtQ5yFTggYUMfzEaBuocZCowSMEjY4yGgTpHJGLeL8aQpUu+d/bsefEDrQHqHGRq9OhzNgGGG0NhoM5BpkbnviSNMPIYCgN1DjJ1FBxv++ObzUc++/J6hL7/xyZP/UnKyqXG79DsNDuoc+o8OjwUuRX/05OHIrfiJUn67MvrPz156HjbH2l2mh3UOXVOpo6mN5uPRMcXEFkfhGbHeECdY3xl6o2bHRG9CxmyO0mz0+ygzqlzMhUAAER4pj7ycCzfHM0OUOcYa6LnXJqP/rosIt7nU++VRlMB0ewYD6hzRHM/FQAAMhUAADIVAACQqQAAkKkAAJCpAACQqQAAgEwFAIBMBQCATAUAAGQqAABkKgAAZCoAAGQqAAAgUwEAIFMBACBTAQAgUwEAAJkKAACZCgAAmQoAAJlKEwAAQKYCAECmAgBApgIAADIVAAAyFQAAMhUAADIVAACQqQAAkKkAAJCpAACQqQAAgEwFAIBMBQAgqkyKmk/y1HulfJ00O0Cdg34qAABkKgAAiOhMfWzy1Oj4AiLrg9DsGA+oc4y7TP1Jysro+AIi64PQ7BgPqHMM2sS/X/fDOebZEfe+Z8clzJ/yWNN1b3tXR+TuQv7Dgv9nqfE7NDvNDuqcOo8Clz1XJnxQe2xZzlLaAgCAofjQeXxMn0sz8vPXP/rrsgh6PzR7NDU7qHPqPApMoglGt6xBs4M6R9TgXBoAAMhUAADIVAzQp1/+mUag2QHqnEwNg3F+wvJjk6fOmPwozT5Omh3UOXVOpg6vNxf93bit+8cmT31z0d/R7OOn2UGdU+dRgPNTAQAIgw+dxzmeCgBAeJCpAACQqQAAkKkAAJCpAACATAUAgEwFAIBMBQCATAUAAGQqAABkKgAAZCoAAGQqAAAgUwEAIFMBACBTAQAAmQoAwHBm6o32dhoCAIBB+/Ofr3dnamxs7OXLV2gOAAAGzfvJf8TGxj70xLykqz7f6TNukbEAAGDgbrS3nz7jvurzPTEvacLt27evXvWdu3Cxo6ODpgEA4EHFxsY+MS8pISH+/wYAAP//zNdE/hMWEZcAAAAASUVORK5CYII=;" parent="1" vertex="1">
                    <mxGeometry x="201.68" y="-900" width="418.32" height="247.77" as="geometry"/>
                </mxCell>
                <mxCell id="oQeAQy8ogvTm_YPqoA1P-13" value="" style="shape=image;verticalLabelPosition=bottom;labelBackgroundColor=#ffffff;verticalAlign=top;aspect=fixed;imageAspect=0;image=data:image/png,iVBORw0KGgoAAAANSUhEUgAAAnEAAAGuCAMAAADI06BtAAABelBMVEX////q6uvDxce7vb/Q0dPu7u/7+/vh7P+syv+gw/+yzv/5+//09PRYWVuFhYexsrLp6embm528vb1ub3FjZGbHyMiQkJLS09Pe3t6mpqh5enzx+vbv9/P7+/yv4MqV17hixpjQ6d709PVWwZAztnnB4tTl7erx8fL4+PjJ6tv6+vpvyqA+uYDy8vPW7+Si28F8zqi13sxixZeG0K6S07XZ6uPP6N3q8u/w+PT29vduyJ6e171KvYip28R7zafN5tvI6dpWwY91yqNoxpt6zKaAgYSHiIufoKLHyMnv7/C3uLr39/fn5+jP0NGPkJPf3+BsbW+qqqyXmJvd3d6LjI20tLZiY2W+vsCfoKF3d3mBgoPS09TIyMqVlpf9/f2h28Ct3si85dK75dLp8u6H0a/J6drk9O3W7+P+/v6s3cbH59n5+fni8+vK69y/wMHq6uqWl5jg4OCMjI7V1db19fWrrK2Xl5nr6+u/6NVMv4ny+vfl9u7Z8eby8/NbPu9wAAAXV0lEQVR4AezSwQ3CMBREwU2cYDv03y+iAC4fyRfPdLCrlxxngzXOIznadQdWuK925LyyClxn2p1V4G5pWQZeiluLn8WB4lAcKA7FgeJQHIoDxaE4UByKA8WhOBTXx9zV6CnyWr24PnfWU+O1enFjPj176s8cKfFavbj3t9hd9TlT4rW/isuu6uO9Vi8uO39XH+81xSlOcYpTnO8UpzjFKc53ilOc4hSnOK8pTnGKU5ziPtyWAYrkIBAA6wGWmqhO9P8PPQZhL+zschwQAAuATugAFBX0QXdB1Zj4N/lQ48n/EqJps+Ket5aKxrxvcRq5kyofNFXt/MTL61flxd2Ke95aV7XsWVwFUnVwo9TPxWrMkH52dPzqrtXaNyzuYWsjXuRi27Y42lIYdTaIqo081INFcsIi9LUWPM6qCZLqgLOsD4Z5WHiTZx6bFvectcWxc3EUX4SqWkNzuRu6lLyJniyYqjUTrKqm4Fo8ddkeTvtgwbbFPWoNonnj4qIN0kUotvUScrr9pNMXi+QMDA+Cduh2mF5AMZGLmWHNsH9xT1rjdLB7cW8Ol7sF+dNd9wRqIWiG9uXusgDJk+HB/sU9a+2qEXY/VUdV/7o7o+r8fj5MVa1r7eauuUgM0/7FPWttBbdvcacVpif0L3fNGLic3+/A3UX47u5yMfYv7nFrzcjOxQ1N7zFwFduaGA44XMq4tAdoF8kDaI27OxtQygUM9i/uaWvNyLbFLTpQVKttTSmpWieL9WiCqeq4u+tq51TVsH9xD1vLLua2xcUToBXtL9uaXnQtLU5YtKjGC8Kxhpu7HDXBObUm9i/uYWvXH/bsmAYAAABAUP/W9nBUcHyOxTn5qhFHHHHEEacdccQRRxxxqhFHHHHEEUccccQRR5x2xBFHHHHEqUYcccQRR5x2xBFHHHHaERf7dYHkOAwEULQPYJljGgpI1kDItBhO7n+mlVYVZijS9A+D+ZUBxaE4FKdHKA7FoTgUp38oDsWhOBSH4nCtoTgUh+JQnE6hOBSH4lCcVqE4FIfinp5fXt/e3ur1RrNFZSylKsbXr626+MP729vrx8cTirspFPfy+fZVb69g7b4e/4F16l+CHoq7OBTX7fVbNFtBaud5XpQVLzMmSjlTpXz1mpWiiud5Ww5QqQF//Ox1UdzZUNyv3zmVlbz4U/5ljF8Z41X5R46CZ5QO+pejMy0U9w3FfdRzXtB2XrKK31XF+LBNRaMX2MkjhHjuIXGWB9vVHL3FobhXQaSqxvxBjYsBHaaTXXEWgEXsS/ZxsebiUBylA8YfWpZO6QFxNgkhSgiJAczAI8RS+zgTwPUJccESzw44RD6r/2kqDsWl/MHN6CFxjm8YnsDku2D6EbgCoBIXCW5GBGEINRKB6QAs/6ejOBTH5nQ65I9sQSk9cB6XREKUARAEUhVAEitxECewTCp0YPU/HcWhuP9ABg8zlw4HlB7ax8UegEtkppQGkpYS55ggk0dVJW71Px3Fobg8Z1NB5H5qjLHhdJgu2gt2SJzhW2rfBXBwH2f54dY+TtcrBxQnsbFFO+VUlA9vF0dlAy4ry0PXqr5teCZAJFT5EVir87iQuACh5RvgiO+cBGD5P03FoThVMaAiKU920T4tK9p89X/htcwYVx0QB14A8hrUF9LM/WtVQ/xkJiFEPjHV/1Cc3uJWrQX9Y+9M19vWjTDMG5gbyCY1ATVRrCyiqLS1qbpuxaw4CWEuNikr+77d/88SVOT6LHTkQ2Vknud7f2iyJxO8Dwh9AuBTa+97/aO50fPkP2uAca01bok79L3TzBuMhm7NJ2JKwbjVgXHNgXH1wDjXlTQOe0dgHDOMg3GyeRyMg3FtX8f5PoyTA8ZZYJwkMM7znPAE4N79Bw+dnwrSkfA3gEePHSGQx+Gpqn+5H4ZPtCMG8jis454+Ce+dVTnkcZGBcX+ax/vhk7oHK/K4mJLKsPR045IIxp1BuSfhIxhXs46LidIfG6cpO0AetzpPw7D2HSuMO8zihXGHRJkVLSHKI8O6ICo0V5jCFMjjzsD98IFTA4yL86QyzmQzTumoqoYMJ7nW+ZwrojSmuCaP+wNg3C/hfacOGBdTao3LD5k5mS9qZjQdMJuMLQdlKQzWcaujw3tOHTCOTRZH6WLpNi8WNTIxVbAloZIMxp2BMIRxjuvWGMd5UjPHnfg1OkubGwfjkMdVNsUZpZxmR79Zx8WszeJ9A1fTXwPjjvcCwzjkcbF1ilJmc+K9am5Yl5Uq4xaz24zieuNwt5K8cdgfh7uVpI3D/jjcrSRgHPbH4W4lGCdoHO5WgnHyxuFuJXnjsD8OdytJGYfzqrhbqZlxOK86J4psBExmNeNwt1JD47COMzSvdousmMfh3pGGxsE4zjPNpuAVaWocjINxR5TEmV45j6sHxsG41UgoNzjLBePkjNNZxjAOxsnlcTojzHEwTjCPK0yUaSnjYBzuj0tzPqC5kHEwDus4Hc2YC5qtmsdt9lai9hsH44qiSkhyXg1nk7cStd84GKcLylL7SrlumMcJ3EoE47BbSf5WIhgH4+RuJYJx2B8neysRjMP+OPlbiWAcvp6D3K1EMA7nVWVvJYJxOK8qcisRjMN5VYGxaqFxMG7I68XdU+oZjKvpAsY9n7K3Nxnz2pgqpV44NcA4GOfcuKtKgik3ZncyDQY8UcFLpwYYB+Msr7aUUlaVPc/f2eWz47o7/nisKnZfv3LqgXEwbkG/84Z9ZfHKGnje9oSHO27JmH/HePHjE9/3tz2XVcXQ1m7nrbMCMA7GWd71O3e6wZS3lWXEXlX9lWrQfXH9/TunHhgH4+r48L5/u9PZ+nj1TXC6aaNut7vV+fT5ff+i81PZD7+z31LjarqAcTXc6lu+XH6/rF8dWXT4Hb0R46S7gHFLHj1yNsS3sOLbBp+q8l3AuKdh+NTZEPs1TyMp4+S7gHF2j1r9vkiR56reoHHyXcC4R2HJJp+r35zNGSffBYx7Glo2+Fzd32A6It8FjLPPVMvmnqt6g8bJdwHjqmdqs+cqzuSvDox7/K0kDO3rT57kLl66fKXT6XS7f7t6TVncnlrg8v/rtW75C653Olf6/YsCxgl0AePEP6K5fKOz1R0cD8lva/1PuDe7W+WgCRgn0oUAMO7W7TvX1PB4CAae5438MftDt6TH7oIeH9ehXzJmzxvY3zBWFXf/fvuWrHHyXcC4NfCPfx5/Trvt75z99KzLY3/b/hE8VCq4c0vOOPkumgPj+l2PR2rg+e6YGzF2eTJQJf+6LGScfBfNgXFXlFLj8S6vid1RoCa9f8sYJ99Fc2CcUoHLa2XY21NSxsl30RwY1+M18x8lZJx8F82Bce5/1d6E18lUSRkn30VzYFz1XxusbbR6k0CJGSffRXNgnOfZ49Sq+SC5rjvZm/Smg6krZ5x8F83BOo7ZnQ56rEq8yZ8fK2UJ2OL7UsbJd7EOYFzFKFAlPVYVK80Gw9GAWVXY6vlDlxdIGSffxdqAcUtUxQ9r73v9o1nF8wSME+lCABi3xB363mljNhgN3ZrPkgTWcTJdCADjGiBvnHwXzUEe57bXOPkumgPjmNtsnHwXzUEe1xbj5LuAcS1YxwnkccJdCADjmtN+45DHtcE4+TxOvgsYh3QE6QiMg3EwDnkcjGthHhfT0V8hj4vMuTMOeVxMiS1ReppxEZUYKeOad1FjXJoT0eFmjcM6LiZKf2ycYU4plcnjmndRY1xKc+ZZfRdCwLjDLF6M1SFRZpjjnCgpjdMFUaGXI2df5PK45l1wQpRH5kQXOjs8F3kcjIvzpBork804LU0rcs1FWZNc63x+bNwRzeTyuOZd2GrIHHdx3MDm8zgYF1Nqxyq3U0Ay13TAPKOjqppMfh23li4WNTMnukgpPh/vHGAcmyyO0sVTc15US7jyJaaK4zluFhkx45p3sVwILLuomePkjUMeZ8eK86RmjluwHEYJ4xp1UTPHLdCZETcOeVzNWMUZpZxmR79Zx8WszYk5bi5nXPMuluu4E10Ym4zodNPGIY+Lq8FImc2J96rZEevkePEWUUmi5Yxr3kX1XjU3J7tgY/swMA7747A/DsZhf5w4MA7742AcdithtxKMg3EwDvvjYBzOq+K8KvK4euZEkQ1PybT3vOpyx0hB2cG5Nw7rOEPzaqtZu/O4hFLmOIvPfx4H4zjPNJui5XmcznLmxCCPa4NxR5TEmW57HmfIpDnyuFYYxwnlpv3pSBRFM7xzaIdxOsu4/cYdUMIwrh15nM7ItD+POyDCHNeSPK4wUabbnsfpyFDeCuNwf1ya8wHN235/3PyQDymFcS1Yx2m74C5o1u487iiynUTYH9cC44qiSkjyVudxOjKLMPu853EwTheUpfaVct3ePG4WUT6zr5Qgj8NuJexWgnGrA+NgHPbHwTjsj8P+OBiHr+cA43BeFedVYRzOq8oD43BedX3AuCGvF3dPqWcixsl30RwY93zK3t5kzGtjqpR6ITTHyXcB45pz464qCabcmN3JNBjwRAUvHSnj5LuAcWvg1ZZSyv4n73n+zi6fHdfd8cdjVbH7+pXjiBkn3wWMWw/9zhv2lcUra+B52xMe7rglY/4d48WPT3zf3/ZcVhVDW7udt45FzDj5LmDc+njX79zpBlPeVpYRe1X1V6pB98X19+8ci6hx8l3AuLXz4X3/dqez9fHqm+D0MRp1u92tzqfP7/sXnQUCxol3AePkudW3fLn8flm/OjXIGSffBYyT53/s17ERxDAIBEBlh/x1uf+WvgcRMGPtNcBwbEJ3+Ky4+QqJI24gxBFHHHHEEUccccQRRxxxxBFHXK4Vl4a4XCsuTXG1n9wp7pdn1zpLt7X5CputNcRl9/K+u5Hp4adsMrjFfNISt1LXiqus06SuFVdZPXHrA5/DfGxBHHHEuRVxxBFHHHHEEWcL4ogjzq2II4444tyKOOKII4444oj7s3NeyXLjQBDMA6DQIAECYB9sjrHy0vHXPaeF/AR3qIlAjv2tqIwmaL/LTDGNs8h/aeKJ5FJgYKa4R+N8B4oDu/MvcQFPN+wqS5J9v6s9cwQzxfnG7Q5dSuA7TwQlbkc2WLV+t6u4cDwzxRnGbQqYuxG0obWoR0uSlEKUYuBIXr2+SJfXr8auHr4swlqkBdglpSbYPQFR0hqi5A2iuYzrmSlONS6UDbc9simg0iEaTQmqh+ALB/Lmon+5vBm7oqljka6Vng0rnR6asByep0P1wFICUStXMlOcbxx1SepdYa8g49m4oA2scByvLnrk8uobK6DdAcv4DtC05cRTV0EbUFZi5WpmivONs2IZirmB2otxSf/CcbyW9Pbdu7eSXo/ToT9sj5YIrCIbQFPJ4bmrpAZkIxpXM1Ocb1yX77BHdVAbZtyhXKS3AG+ly9gVS/zadLBcGafDAV3NFGcaR9EGmwovxiVtUD0RjMN4JekdwDtJME6HBYsk2fMKKKUmuuypKxZPDysg43pmivONWwpAqZ8ZxyK1UCUZh/Fe0sufcQVUAxZhzcNe3qr+1FWokjfO7eqOUsxzDpKGP2cxU0zjDmammMZ90MAH/kdmimmcRsSxzBTTuGnc+UzjPsINu5oppnGfzu3q/BTTuFXSylYUb9IVx3TVs7SQXJ4YmSl++7NcGViW23Slo6ZDVoLVGZgp7mCrumuj5/BbdpWNb7Bph9wYmCnuwLiQc/DtxK6ypLx+qyvLfJWovuyMzBR3YBwmr6d2ZWBKvzYd6PLMyExxF8bh6jdcc/O1rpIa3aUdmkseoEqeDYu0UiVPhChJkQd2GSMzxb0YV888dpoNlhJCXuhlJRmpGFY6poeuFAlesRyokeeuMiMzxX1sVWPVdmZXkryzKUCtAETDd6A8dtXBnD0HqvNAy6adkZniDoxLJYTiJ54Dz8aeYZUkRVaXZJ/fG9UEWCa4lBsP+IaXxMBMcQfGRQOTcRrZCMXYFAC6bJwOz12VzhNWoakyMlPcwZ01AKWk8+5mN7CSQo7QW1Nj1bACeuiqK/BIU4Mr7sCbKU43bpF2WKTSz+yKXOkulcYieTWokvswHSR5AlYpBlZJxrXMFPPZSj8g5BWIO8cwU0zjfkDQCi0bxzBTTON+hOnIDdBMMY27H/5il45pAAAAAAT1b20JTyI4OSqI84o44ogjziviiFNBHHHEEaeCOOKI84o44ogjziviiFNBHHHEEaeCOOKI84o44ogjjjjiiFNBHHHEEaeCOOKI84o44ogjjjjiiFNBHHGxcweqjsJAFIb/B8jJJCY1Nu//oMtgrFzLCruwsLQZLler6UjhY0hwSDH+LNTO44+Ib5mSGjdhcYr7VHFjd/3/RVxPEPMni5viDEzpPxEXlD68xk1x97vr85T6Rium6ucyPLKkBbRUbSFKMeChVSoN1PCrvYGnzS4uVTuekbq07uIWAfm1hX+SpBTtg8VNcfe76/sxF5or3JRIDQ9LPCuobrD2EHrGQz14LtT86pGWRrRQjOMZsQfiRdzYwr8pwRT32eJud9f346ataYNQ18ArmkAGQQ+wioeW/bOa/4e6eFo8YzeOZ/g9tqu4DaxPcd8g7nZ3/SKP1gSQsuIGELIkgRokeeicv2lBLanhCRbthqvs9Qy/R7qKA6xMcd8g7mZ3/XGEJvaIBWDtiTbE7dUM7mtcNG2MD281bv0ycVPc3e76tYGd4qzugAhdoDb4BbvO43JPfhrqmMexljCewTmPY9ODplNc0uPzxU1xN7vrY9IBIkkqu5MqPQ9xYZU0xNm5Vl0va9XQj2fsa9Xa8HhKJZ/iyFL7PHFT3HzLNcXNXzHFTXFT3BR3E1PcFDfFTXFT3BQ3xc1fMcVNcRb5B3GTfYqb4tq1ZS4UIGbew8f+pbhHnuJ+E7PGPco/qHHPbxM3xf3sqrTepXXUOPCrZfRoLvLzuPdoVoO4FsnwaMKHnu+tlFiqlNkzWpZ6OrouPfvozcySsg+ty/eIm+LOrkpMC1u1Ic6v0l49mgWI+zv+RY1YG4u2Ic7vtgT4fbaweaZinhFTJJQnTZnQIxbP3swMPnRR+hpxU9zZVbmrevYhzq+OiKe4/gTWTFyBfUQTTcYeft+TAFb8j+SjcqYpwUPB4qv/M+YxtNrXiJvizq5KLA4nLu7VNNklneKKATn6KWgZ4mhROQB+fx8Ay54xqQ1x4Owsvvo/XVyWx1eJm+JGNXuvcWeP5rXGXcVB6vm9xp3i3mscnDUOvkfcFHd2VZoW2jmPiz3w6tFcaoLoR//c3sWxrsc8LqUkYyt2EZdJYx43ejNzH6SX9FXiprjRVWnlfa169GiGLjkzTKrGRdwiqSc416pFylzE/Vyr1sZWFX3o8d1f7N1BasMwFEVRLUZb8UwjL8Rjq8niC8ULKLXqRz7njls+Dw5kEIiIqyku8F3DBXNxxBFHHHHEEWcFccQRR5wVxH1YxBFHHHHEEUecFcTt29XeHsgK4sZ2NdoDWUFcO7afjvZIVhDX9kc/jawgbjz6aWQFce149NPICuLavrdAVkTFHUfLNUYr0BjESTFx5+y3mmf2eKDAikLizn67M3s8UGBFHXGz327mj0cqsCIg7qsvKH98fSVWEEccca0vKHs80O0VxGX+O3t8TQVWEEccccQRRxxxxBFHHHHEEUccccQRRxxxxBFHHHHEEUccccQRRxxxxBFHHHHEEUccccQRRxxxxBFHHHHEEUccccQRRxxxxBFHHHHEEUccccQRRxxxxBFHHHHEEUccccQRRxxxxBFHHHHEEeeXp/3yNHHEEUcccV5J8kqSV5K8BOclOK9deu2yljgpL67/qr//ffb4gvIr6otbUP74mvIriCOOOOKII+4VPV5C3KuquNn/oZk/vqLsiqri3rMvb77zx1dUYEVOnESciJOIE3EScSJOxEnEiTiJOH23Sx8EAMMwAIDSHNn1PhX7oIEnMg7jMA6MwzgwDuMwbgdcZSqyA67SGat6Aq6wu1bEyroG5IoDMPQLBDKhJFkAAAAASUVORK5CYII=;" parent="1" vertex="1">
                    <mxGeometry x="720" y="-829.4" width="362.5" height="249.4" as="geometry"/>
                </mxCell>
                <mxCell id="oQeAQy8ogvTm_YPqoA1P-14" value="" style="endArrow=none;html=1;dashed=1;" parent="1" source="oQeAQy8ogvTm_YPqoA1P-2" target="oQeAQy8ogvTm_YPqoA1P-13" edge="1">
                    <mxGeometry width="50" height="50" relative="1" as="geometry">
                        <mxPoint x="953.75" y="-264.70000000000005" as="sourcePoint"/>
                        <mxPoint x="1020" y="-233.8860465116279" as="targetPoint"/>
                    </mxGeometry>
                </mxCell>
                <mxCell id="oQeAQy8ogvTm_YPqoA1P-15" value="" style="endArrow=none;html=1;dashed=1;" parent="1" source="oQeAQy8ogvTm_YPqoA1P-3" target="oQeAQy8ogvTm_YPqoA1P-12" edge="1">
                    <mxGeometry width="50" height="50" relative="1" as="geometry">
                        <mxPoint x="920.0840825840826" y="-264.70000000000005" as="sourcePoint"/>
                        <mxPoint x="1041.070596070596" y="-114.10000000000014" as="targetPoint"/>
                    </mxGeometry>
                </mxCell>
                <mxCell id="oQeAQy8ogvTm_YPqoA1P-16" value="CAP theorem" style="rounded=0;whiteSpace=wrap;html=1;fillColor=#008a00;strokeColor=#005700;fontColor=#ffffff;" parent="1" vertex="1">
                    <mxGeometry x="360" y="-250" width="100" height="40" as="geometry"/>
                </mxCell>
                <mxCell id="oQeAQy8ogvTm_YPqoA1P-17" value="" style="endArrow=none;html=1;" parent="1" source="oQeAQy8ogvTm_YPqoA1P-16" target="oQeAQy8ogvTm_YPqoA1P-19" edge="1">
                    <mxGeometry width="50" height="50" relative="1" as="geometry">
                        <mxPoint x="610" y="408.68421052631584" as="sourcePoint"/>
                        <mxPoint x="610" y="230" as="targetPoint"/>
                    </mxGeometry>
                </mxCell>
                <mxCell id="oQeAQy8ogvTm_YPqoA1P-18" value="&lt;font style=&quot;font-size: 12px&quot;&gt;Consistency&lt;br&gt;&lt;/font&gt;" style="rounded=0;whiteSpace=wrap;html=1;" parent="1" vertex="1">
                    <mxGeometry x="350" y="-350" width="120" height="50" as="geometry"/>
                </mxCell>
                <mxCell id="oQeAQy8ogvTm_YPqoA1P-19" value="Availability" style="rounded=0;whiteSpace=wrap;html=1;" parent="1" vertex="1">
                    <mxGeometry x="500" y="-140" width="120" height="50" as="geometry"/>
                </mxCell>
                <mxCell id="oQeAQy8ogvTm_YPqoA1P-20" value="Partition tolerance" style="rounded=0;whiteSpace=wrap;html=1;" parent="1" vertex="1">
                    <mxGeometry x="180" y="-255" width="120" height="50" as="geometry"/>
                </mxCell>
                <mxCell id="oQeAQy8ogvTm_YPqoA1P-21" value="" style="endArrow=none;html=1;" parent="1" source="oQeAQy8ogvTm_YPqoA1P-16" target="oQeAQy8ogvTm_YPqoA1P-18" edge="1">
                    <mxGeometry width="50" height="50" relative="1" as="geometry">
                        <mxPoint x="540" y="214.9099836333878" as="sourcePoint"/>
                        <mxPoint x="582.75" y="219.10801963993447" as="targetPoint"/>
                    </mxGeometry>
                </mxCell>
                <mxCell id="oQeAQy8ogvTm_YPqoA1P-22" value="" style="endArrow=none;html=1;" parent="1" source="oQeAQy8ogvTm_YPqoA1P-16" target="oQeAQy8ogvTm_YPqoA1P-20" edge="1">
                    <mxGeometry width="50" height="50" relative="1" as="geometry">
                        <mxPoint x="530" y="190" as="sourcePoint"/>
                        <mxPoint x="570" y="170" as="targetPoint"/>
                    </mxGeometry>
                </mxCell>
                <mxCell id="oQeAQy8ogvTm_YPqoA1P-23" value="&lt;font&gt;&lt;div&gt;Every read receives the most recent write or an error&lt;/div&gt;&lt;/font&gt;" style="rounded=0;whiteSpace=wrap;html=1;" parent="1" vertex="1">
                    <mxGeometry x="110" y="-380" width="160" height="60" as="geometry"/>
                </mxCell>
                <mxCell id="oQeAQy8ogvTm_YPqoA1P-24" value="" style="endArrow=none;html=1;" parent="1" source="oQeAQy8ogvTm_YPqoA1P-18" target="oQeAQy8ogvTm_YPqoA1P-23" edge="1">
                    <mxGeometry width="50" height="50" relative="1" as="geometry">
                        <mxPoint x="473.0769230769231" y="170" as="sourcePoint"/>
                        <mxPoint x="516.1538461538462" y="150" as="targetPoint"/>
                    </mxGeometry>
                </mxCell>
                <mxCell id="oQeAQy8ogvTm_YPqoA1P-25" value="&lt;font&gt;Every request receives a (non-error) response, without the guarantee that it contains the most recent write&lt;br&gt;&lt;/font&gt;" style="rounded=0;whiteSpace=wrap;html=1;align=left;" parent="1" vertex="1">
                    <mxGeometry x="560" y="-70" width="190" height="70" as="geometry"/>
                </mxCell>
                <mxCell id="oQeAQy8ogvTm_YPqoA1P-26" value="" style="endArrow=none;html=1;" parent="1" source="oQeAQy8ogvTm_YPqoA1P-19" target="oQeAQy8ogvTm_YPqoA1P-25" edge="1">
                    <mxGeometry width="50" height="50" relative="1" as="geometry">
                        <mxPoint x="630" y="125" as="sourcePoint"/>
                        <mxPoint x="720" y="125" as="targetPoint"/>
                    </mxGeometry>
                </mxCell>
                <mxCell id="oQeAQy8ogvTm_YPqoA1P-27" value="Availability:&lt;br&gt;phải trả về kết quả, chấp nhận trả về result cũ" style="shape=note;whiteSpace=wrap;html=1;backgroundOutline=1;darkOpacity=0.05;align=left;verticalAlign=bottom;size=16;" parent="1" vertex="1">
                    <mxGeometry x="730" y="40" width="130" height="80" as="geometry"/>
                </mxCell>
                <mxCell id="oQeAQy8ogvTm_YPqoA1P-28" value="" style="endArrow=none;html=1;dashed=1;" parent="1" source="oQeAQy8ogvTm_YPqoA1P-25" target="oQeAQy8ogvTm_YPqoA1P-27" edge="1">
                    <mxGeometry width="50" height="50" relative="1" as="geometry">
                        <mxPoint x="660" y="190.40540540540542" as="sourcePoint"/>
                        <mxPoint x="700" y="180.67567567567573" as="targetPoint"/>
                    </mxGeometry>
                </mxCell>
                <mxCell id="oQeAQy8ogvTm_YPqoA1P-29" value="" style="endArrow=none;html=1;" parent="1" source="oQeAQy8ogvTm_YPqoA1P-20" target="oQeAQy8ogvTm_YPqoA1P-30" edge="1">
                    <mxGeometry width="50" height="50" relative="1" as="geometry">
                        <mxPoint x="443.33333333333326" y="210" as="sourcePoint"/>
                        <mxPoint x="580" y="300" as="targetPoint"/>
                    </mxGeometry>
                </mxCell>
                <mxCell id="oQeAQy8ogvTm_YPqoA1P-30" value="&lt;font&gt;&lt;div&gt;&lt;span&gt;The system continues to operate despite an arbitrary number of messages being dropped (or delayed) by the network between nodes&lt;/span&gt;&lt;br&gt;&lt;/div&gt;&lt;/font&gt;" style="rounded=0;whiteSpace=wrap;html=1;align=left;" parent="1" vertex="1">
                    <mxGeometry x="210" y="-160" width="210" height="90" as="geometry"/>
                </mxCell>
                <mxCell id="oQeAQy8ogvTm_YPqoA1P-31" value="&lt;span&gt;Partition tolerance: do phân tán, nên thuộc các mạng khác nhau là đương nhiên&lt;/span&gt;" style="shape=note;whiteSpace=wrap;html=1;backgroundOutline=1;darkOpacity=0.05;align=left;verticalAlign=bottom;size=11;" parent="1" vertex="1">
                    <mxGeometry x="40" y="-50" width="130" height="70" as="geometry"/>
                </mxCell>
                <mxCell id="oQeAQy8ogvTm_YPqoA1P-32" value="" style="endArrow=none;html=1;dashed=1;" parent="1" source="oQeAQy8ogvTm_YPqoA1P-30" target="oQeAQy8ogvTm_YPqoA1P-31" edge="1">
                    <mxGeometry width="50" height="50" relative="1" as="geometry">
                        <mxPoint x="844.5" y="100.92269326683288" as="sourcePoint"/>
                        <mxPoint x="895" y="89.58852867830421" as="targetPoint"/>
                    </mxGeometry>
                </mxCell>
                <mxCell id="oQeAQy8ogvTm_YPqoA1P-33" value="" style="endArrow=none;html=1;dashed=1;" parent="1" source="oQeAQy8ogvTm_YPqoA1P-30" target="oQeAQy8ogvTm_YPqoA1P-34" edge="1">
                    <mxGeometry width="50" height="50" relative="1" as="geometry">
                        <mxPoint x="520" y="172.5" as="sourcePoint"/>
                        <mxPoint x="570" y="260" as="targetPoint"/>
                    </mxGeometry>
                </mxCell>
                <mxCell id="oQeAQy8ogvTm_YPqoA1P-34" value="Partition tolerance:&amp;nbsp;&lt;span&gt;các mạng hoạt động bình thường kể cả có một mạng sập hoặc kết nối giữa 2 mạng bị hỏng&lt;/span&gt;" style="shape=note;whiteSpace=wrap;html=1;backgroundOutline=1;darkOpacity=0.05;align=left;verticalAlign=bottom;size=11;" parent="1" vertex="1">
                    <mxGeometry x="220" y="10" width="130" height="84" as="geometry"/>
                </mxCell>
                <mxCell id="oQeAQy8ogvTm_YPqoA1P-35" value="VD: kiểu hệ thống ở VN sập, đứt cáp mạng quốc tế, Mĩ, Châu Âu không làm sao" style="shape=note;whiteSpace=wrap;html=1;backgroundOutline=1;darkOpacity=0.05;align=left;verticalAlign=bottom;size=14;fontStyle=0" parent="1" vertex="1">
                    <mxGeometry x="390" y="14" width="130" height="80" as="geometry"/>
                </mxCell>
                <mxCell id="oQeAQy8ogvTm_YPqoA1P-36" value="" style="endArrow=none;html=1;dashed=1;" parent="1" source="oQeAQy8ogvTm_YPqoA1P-30" target="oQeAQy8ogvTm_YPqoA1P-35" edge="1">
                    <mxGeometry width="50" height="50" relative="1" as="geometry">
                        <mxPoint x="596.0714285714287" y="180" as="sourcePoint"/>
                        <mxPoint x="580" y="270" as="targetPoint"/>
                    </mxGeometry>
                </mxCell>
                <mxCell id="oQeAQy8ogvTm_YPqoA1P-37" value="" style="endArrow=none;dashed=1;html=1;rounded=0;" parent="1" source="oQeAQy8ogvTm_YPqoA1P-18" target="oQeAQy8ogvTm_YPqoA1P-1" edge="1">
                    <mxGeometry width="50" height="50" relative="1" as="geometry">
                        <mxPoint x="680" y="-240" as="sourcePoint"/>
                        <mxPoint x="730" y="-290" as="targetPoint"/>
                    </mxGeometry>
                </mxCell>
            </root>
        </mxGraphModel>
    </diagram>
</mxfile>